<?xml version="1.0" standalone="no"?>
<!DOCTYPE svg PUBLIC "-//W3C//DTD SVG 20010904//EN"
 "http://www.w3.org/TR/2001/REC-SVG-20010904/DTD/svg10.dtd">
<svg version="1.0" xmlns="http://www.w3.org/2000/svg"
 width="512.000000pt" height="512.000000pt" viewBox="0 0 512.000000 512.000000"
 preserveAspectRatio="xMidYMid meet">

<g transform="translate(0.000000,512.000000) scale(0.100000,-0.100000)"
fill="#000000" stroke="none">
<path d="M282 4429 c-128 -22 -228 -111 -266 -239 -14 -48 -16 -218 -16 -1630
0 -1412 2 -1582 16 -1630 39 -132 137 -217 275 -240 89 -14 4449 -14 4538 0
138 23 236 108 275 240 14 48 16 218 16 1630 0 1412 -2 1582 -16 1630 -39 132
-137 217 -275 240 -80 12 -4469 12 -4547 -1z m913 -1869 l0 -1715 -450 0 -450
0 -47 27 c-32 19 -52 41 -67 71 l-21 43 0 1574 c0 1571 0 1574 21 1616 21 45
69 82 123 95 17 4 225 6 461 6 l430 -2 0 -1715z m3677 1688 c32 -19 52 -41 67
-71 l21 -43 0 -1574 0 -1574 -21 -43 c-15 -30 -35 -52 -67 -71 l-47 -27 -1732
-3 -1733 -2 0 1720 0 1720 1733 -2 1732 -3 47 -27z"/>
<path d="M379 4080 c-29 -17 -43 -65 -27 -96 24 -51 42 -54 319 -54 264 0 311
6 329 40 17 32 11 78 -12 100 -21 19 -34 20 -307 20 -161 0 -293 -5 -302 -10z"/>
<path d="M373 3730 c-30 -27 -36 -55 -21 -87 23 -49 46 -54 256 -51 190 3 194
3 213 27 26 32 25 82 -4 109 -22 21 -32 22 -223 22 -185 0 -202 -1 -221 -20z"/>
<path d="M378 3221 c-45 -36 -44 -93 1 -128 12 -9 93 -12 302 -13 l286 0 21
23 c29 31 29 87 1 113 -19 18 -42 19 -303 22 -271 3 -283 2 -308 -17z"/>
<path d="M390 2887 c-38 -19 -55 -61 -40 -98 7 -16 21 -34 31 -39 10 -6 139
-10 301 -10 272 0 285 1 306 20 23 22 29 68 12 100 -18 34 -65 40 -329 40
-186 0 -263 -4 -281 -13z"/>
<path d="M369 2531 c-31 -25 -32 -83 -1 -114 22 -21 29 -22 280 -25 279 -4
313 -1 343 29 26 26 25 83 -1 109 -19 19 -33 20 -309 20 -267 0 -291 -1 -312
-19z"/>
<path d="M379 2200 c-29 -17 -43 -65 -27 -96 24 -52 39 -54 341 -52 l279 3 19
24 c26 32 25 82 -4 109 -23 22 -29 22 -308 22 -160 0 -291 -5 -300 -10z"/>
<path d="M378 1856 c-26 -19 -39 -62 -28 -90 20 -54 31 -56 331 -56 264 0 277
1 303 21 37 29 37 89 0 118 -26 20 -38 21 -308 21 -215 -1 -285 -4 -298 -14z"/>
<path d="M390 1347 c-38 -19 -55 -61 -40 -98 7 -16 21 -34 31 -39 10 -6 107
-10 217 -10 195 0 199 0 220 23 37 39 28 98 -19 122 -37 20 -371 21 -409 2z"/>
<path d="M1561 4064 c-28 -35 -26 -67 3 -101 l24 -28 173 -3 c96 -2 188 -1
206 3 67 12 93 77 52 129 l-20 26 -209 0 -209 0 -20 -26z"/>
<path d="M2250 4070 c-30 -30 -30 -83 1 -115 18 -18 35 -20 197 -23 207 -4
247 3 267 50 15 37 3 83 -25 98 -11 6 -108 10 -219 10 -188 0 -202 -1 -221
-20z"/>
<path d="M2932 4067 c-45 -47 -17 -120 51 -132 18 -4 110 -5 206 -3 l173 3 24
28 c31 36 31 71 -1 102 -24 25 -25 25 -228 25 -200 0 -204 0 -225 -23z"/>
<path d="M3619 4071 c-31 -25 -32 -83 -1 -114 21 -21 32 -22 195 -25 192 -4
229 0 258 29 27 27 25 80 -4 107 -22 21 -32 22 -224 22 -181 0 -203 -2 -224
-19z"/>
<path d="M4302 4067 c-23 -25 -28 -66 -12 -97 17 -32 67 -40 244 -40 186 0
212 6 234 54 16 32 2 80 -29 96 -10 6 -107 10 -217 10 -195 0 -199 0 -220 -23z"/>
<path d="M2001 2964 c-187 -50 -350 -235 -369 -420 -12 -115 1 -197 47 -289
88 -177 258 -285 450 -285 146 0 255 44 359 146 52 53 62 68 62 97 0 49 -29
81 -73 81 -30 0 -46 -9 -96 -57 -84 -80 -134 -101 -246 -101 -77 -1 -98 3
-147 26 -68 31 -133 95 -168 164 -22 43 -25 62 -25 149 0 90 3 105 28 153 79
149 246 223 403 177 67 -19 97 -38 171 -107 58 -54 86 -60 127 -27 20 16 26
29 26 61 0 36 -6 46 -63 102 -128 125 -316 176 -486 130z"/>
<path d="M2762 2957 c-22 -23 -22 -25 -22 -483 l0 -461 23 -21 c25 -23 66 -28
97 -12 30 16 40 66 40 201 l0 129 109 0 109 0 102 -137 c135 -181 156 -203
195 -203 41 0 75 36 75 77 0 24 -21 60 -86 148 -48 64 -85 117 -83 119 2 1 34
17 71 34 76 37 120 82 156 162 67 144 16 322 -116 411 -82 54 -113 59 -395 59
-252 0 -254 0 -275 -23z m551 -151 c103 -43 139 -179 70 -264 -54 -67 -75 -72
-290 -72 l-193 0 0 175 0 175 190 0 c138 0 200 -4 223 -14z"/>
<path d="M3790 2960 c-11 -11 -22 -30 -25 -42 -7 -33 -85 -829 -85 -870 0 -93
135 -106 154 -16 3 13 15 120 26 238 11 118 23 233 26 254 6 38 13 23 120
-245 63 -156 122 -290 131 -296 27 -21 77 -16 100 10 12 12 71 145 131 296
126 317 108 322 143 -34 12 -126 27 -232 35 -247 25 -49 94 -51 128 -5 l20 28
-43 442 c-24 243 -48 451 -54 462 -25 49 -80 59 -120 23 -17 -16 -68 -133
-157 -355 -73 -183 -133 -333 -135 -333 -2 0 -62 150 -135 333 -89 222 -140
339 -157 355 -30 27 -76 29 -103 2z"/>
</g>
</svg>
